<svg width="55" height="55" fill="none" xmlns="http://www.w3.org/2000/svg"><circle cx="27.5" cy="27.5" r="27.5" fill="#281205"/><path fill-rule="evenodd" clip-rule="evenodd" d="M22.334 22.128h.445l.124.149.321.742.42 1.014.52 1.36.52 1.558.246.84.1.915.073 1.138-.074.47-.173.346-.297.495-.296.494-.124.247v.174h.791l.223.099.272.222.445.52.272.494.149.42v.816l-.57-.197-.518-.223-.52-.198-.42-.198v-.42h.766l-.173-.247-.297-.173-.247-.075-.272.075-.272.173-.346.247-.272.321-.173.297h-.569l-.198-.198V22.202l.124-.074zm.668 2.275l.321.619.371 1.063.42 1.434.174 1.039.123.915v.569l-.42.667-.47.767-.1.297v.569l-.42.42h-.098v-8.359h.099zm10.238-2.275h-.445l-.123.149-.322.742-.42 1.014-.52 1.36-.52 1.558-.247.84-.099.915-.074 1.138.074.47.174.346.296.495.297.494.124.247v.174h-.792l-.222.099-.272.222-.446.52-.272.494-.148.42v.816l.569-.197.52-.223.519-.198.42-.198v-.42h-.767l.174-.247.296-.173.248-.075.272.075.272.173.346.247.272.321.173.297h.57l.197-.198V22.202l-.123-.074zm-.667 2.275l-.322.619-.37 1.063-.421 1.434-.174 1.039-.123.915v.569l.42.667.47.767.1.297v.569l.42.42h.099v-8.359h-.1z" fill="#F3EFE4"/><path fill-rule="evenodd" clip-rule="evenodd" d="M27.131 14.66v-.198l.248.025.148.099.124.099.222.197.149.223.123.198.124.222.124.272.123.273.1.272.098.321.099.346.025.297.024.445v.198l-.42.618.025.025.494-.371h.1l.073.05.1.197.024.198.05.322.074.296.074.42.099.594.099.57.099.741v.89l.024 5.639-.049.173-.767.816.05.05.618-.15.025.273v1.484l-.074.84-.124.767-.223.643-.296.544-.371.47-.371.198h-.1v1.088h1.262v.445l-.42.445-.1.099v.148c.503.42 1.514 1.272 1.534 1.311.02.04.288.33.42.47l.025.05v.816l-.297.37-.346.223-.494.099-.544.099h-3.042l-.767-.396-.321-.222-.174-.149-.049-.099v-.742l2.028-1.83v-.247l-.47-.52-.074-.049v-.322h1.137v-1.087l-.445-.371-.37-.544-.198-.47-.198-.47-.124-.569-.074-.717-.1-1.038V29.3l-.049-4.105h.545v-.1l-.495-.667v-1.681l.074-1.212.124-.792.173-1.088.321-1.187.248-.915.247-.742.05-.741v-1.41zm.693 6.43l-.074.47-.075.717v1.162l-.074 2.498v4.476l.1 2.72.098.569.148-.57.075-1.26v-7.32l-.075-1.93-.049-.988-.074-.544zm-.297 14.491h-.816v.148l.099.149.123.074h.297l.297-.198v-.173zm.717 3.66l.42-.123.421-.124.297-.173.148-.223V38.4l-.05-.099h.248l.173.1.124.148.074.173-.074.148-.124.173-.272.124-.322.074-.42.074-.272.05h-.321l-.1-.05.05-.074z" fill="#F3EFE4"/><path fill-rule="evenodd" clip-rule="evenodd" d="M17.586 11.37l-.272.372-.47.766-.47.965-.445 1.113-.322.915-.272 1.014-.148.964-.124 1.064-.05 1.162v.593l.05.693.1.791.148 1.039.197 1.187.174 1.038.247 1.138.222.99.347 1.483.346 1.657.198.742.099.643.074.816.099 1.088.099 1.607.05 1.46.049 1.409-.05 1.038-.05.075h-2.398l-.272.123-.297.223-.198.198-.148.173-.074.099L14 41.64l.099.395.148.372.272.37.149.149L37.864 43l.297-.198.395-.47.322-.47.222-.445.544-1.088.297-.89.248-.742.247-1.014.148-.989.025-.791V32.91l-.099-.766-.099-1.039-.099-.692-.074-.495-.124-.84-.247-1.138-.297-1.46-.445-2.126-.395-1.978-.124-.792-.124-1.434-.123-.94-.075-.668-.05-3.66.1-.049h2.745l.37-.346.15-.297v-1.682l-.15-.543-.123-.297-.173-.223-.124-.123-.321-.248L40.46 11H17.957l-.173.124-.198.247zm-.272 31.037l.667-.965.272-1.088.198-2.102v-2.448l-.198-2.943-.272-2.572-.593-2.547-.668-3.19-.494-3.413v-2.374l.494-2.596.94-2.548.791-1.385.322-.544h19.56l-.296.371-.618 1.237-.47 1.36-.148 1.509.148 2.596.247 2.794.693 2.993.692 3.61.643 3.24.198 3.635-.198 1.78-.643 2.474-1.261 2.473-.371.642H17.314zm.024-2.325h-2.497v1.632l.148.297.148.321.371.248h.371l.223-.124.322-.297.271-.297.223-.395.124-.371.173-.495.123-.52zm20.946-26.016h2.597v-1.78l-.198-.346-.222-.297-.173-.148h-.718l-.321.148-.223.297-.297.643-.222.643-.223.84z" fill="#F3EFE4"/></svg>