<svg width="172" height="48" fill="none" xmlns="http://www.w3.org/2000/svg"><path d="M71.93 21.712c-1.008-.007-1.734-.245-2.18-.715-.434-.479-.648-1.25-.641-2.314l.035-4.956-3.118 7.314-.462-.003-3.698-7.642-.053 7.616-.7-.005.064-9.24 1.708.012 3.34 6.898 2.918-6.854 1.834.012-.048 6.86c-.006.878.064 1.522.21 1.934.147.412.411.656.793.733l-.002.35zm1.344-5.38c.003-.476-.06-.827-.189-1.052-.129-.234-.39-.352-.781-.355l-.14-.001.003-.42 1.68.011c.336.003.592.06.769.174.176.113.3.3.374.563.073.252.107.616.104 1.092l-.02 3.01 2.553-4.812 1.68.012-.046 6.58-1.82-.013.034-4.83-2.554 4.812-1.68-.012.033-4.76zm7.985.055c.003-.476-.06-.826-.189-1.051-.12-.234-.376-.353-.768-.356h-.14l.003-.42 1.386.01c.327.002.579.05.755.144a.898.898 0 01.417.451 2.794 2.794 0 011.91-.714c.942.006 1.663.333 2.162.98.51.639.76 1.462.753 2.47-.007 1.008-.274 1.832-.801 2.473-.518.63-1.262.943-2.233.936a2.772 2.772 0 01-1.076-.217 1.563 1.563 0 01-.39-.213l-.021 2.94-1.82-.013.052-7.42zm2.98 4.291c.933.007 1.406-.923 1.42-2.79.005-.859-.097-1.54-.309-2.046-.21-.506-.545-.76-1.002-.763a1.857 1.857 0 00-1.362.564l.04.196c.037.113.055.272.053.477l-.027 3.934c.102.084.213.155.334.212.26.142.545.214.853.216zm7.673.684c-.682-.005-1.278-.159-1.79-.46a3.135 3.135 0 01-1.153-1.24 3.747 3.747 0 01-.393-1.754c.004-.644.143-1.221.418-1.733.274-.52.664-.929 1.17-1.224.516-.304 1.114-.454 1.795-.45.682.006 1.273.164 1.775.475a3 3 0 011.168 1.24c.267.515.398 1.095.393 1.74a3.748 3.748 0 01-.418 1.746 3.1 3.1 0 01-1.184 1.224c-.506.295-1.1.44-1.781.436zm.004-.63c.476.003.842-.251 1.097-.763.256-.511.387-1.187.392-2.027.006-.84-.115-1.518-.363-2.033-.249-.515-.611-.774-1.087-.777-.476-.004-.842.25-1.097.762-.256.512-.387 1.187-.392 2.028-.006.84.115 1.517.363 2.032.249.515.611.774 1.087.778zm4.996-4.236c.003-.476-.06-.826-.188-1.051-.13-.234-.39-.353-.782-.355l-.14-.001.003-.42 1.68.011c.336.003.592.06.769.174.176.113.301.3.374.562.073.253.108.617.104 1.093l-.008 1.12 2.24.016.021-2.94 1.82.012-.033 4.76c-.004.476.059.831.188 1.066.129.224.39.338.782.341l.14.001-.003.42-1.68-.012c-.336-.002-.592-.055-.769-.159-.177-.113-.301-.296-.374-.549-.073-.262-.108-.635-.104-1.12l.008-1.19-2.24-.016-.021 3.01-1.82-.013.033-4.76zm10.692 4.975c-.644-.005-1.208-.158-1.691-.46a3.095 3.095 0 01-1.126-1.226c-.257-.524-.384-1.113-.379-1.766.005-.728.14-1.348.405-1.86a2.77 2.77 0 011.114-1.154 3.09 3.09 0 011.584-.395 3.457 3.457 0 011.566.361c.465.237.831.57 1.099 1.002.268.422.4.908.396 1.459a7.315 7.315 0 01-.032.601l-.03.28-4.214-.03c-.006.887.124 1.537.392 1.95.268.403.645.606 1.13.61.448.003.822-.093 1.122-.287a3.69 3.69 0 00.888-.861l.432.325a3.654 3.654 0 01-1.03 1.042c-.403.277-.945.414-1.626.409zm1.076-3.8c.006-.878-.092-1.5-.295-1.865-.203-.374-.495-.563-.878-.566-.355-.002-.645.187-.872.568-.217.372-.329.987-.335 1.846l2.38.016zm3.449-1.069c.003-.476-.06-.826-.189-1.05-.129-.235-.39-.354-.782-.356l-.14-.001.003-.42 1.68.011c.336.003.593.06.769.174.177.113.301.3.374.562.073.253.108.617.105 1.093l-.008 1.12 2.24.016.02-2.94 1.82.012-.033 4.76c-.003.476.06.832.189 1.066.129.225.389.338.781.341l.14.001-.003.42-1.68-.012c-.336-.002-.592-.055-.769-.159-.176-.113-.301-.296-.374-.549-.073-.261-.107-.635-.104-1.12l.008-1.19-2.24-.016-.021 3.01-1.82-.013.034-4.76zm13.309 4.993a2.554 2.554 0 01-1.132-.26c-.335-.18-.65-.47-.946-.874l-1.332-1.773-.019 2.743-1.82-.012.033-4.76c.004-.476-.059-.827-.188-1.051-.13-.235-.39-.353-.782-.356h-.14l.003-.42 1.68.01c.336.003.592.06.769.174.176.113.301.3.374.563.073.252.107.617.104 1.093l-.009 1.33 1.708-2.06c.32-.381.621-.654.902-.82.281-.166.655-.248 1.122-.245l.28.002-.003.364a1.667 1.667 0 00-.757.163c-.225.11-.441.286-.648.528l-1.369 1.642 1.845 2.477c.443.61.875.967 1.294 1.073l-.002.336a1.495 1.495 0 01-.407.095 3.8 3.8 0 01-.56.038zm4.385.03c-.682-.004-1.278-.157-1.789-.46a3.133 3.133 0 01-1.153-1.24 3.743 3.743 0 01-.394-1.752 3.662 3.662 0 01.418-1.734c.274-.52.664-.928 1.17-1.223.516-.305 1.114-.455 1.796-.45.681.005 1.272.163 1.774.475.512.302.901.715 1.168 1.24.267.515.398 1.094.394 1.738a3.746 3.746 0 01-.419 1.747 3.1 3.1 0 01-1.184 1.224c-.506.295-1.1.44-1.781.436zm.004-.63c.476.004.842-.25 1.098-.762.255-.511.386-1.187.392-2.027.005-.84-.116-1.517-.364-2.032-.249-.515-.611-.775-1.087-.778-.476-.003-.842.25-1.097.762-.256.512-.386 1.188-.392 2.028-.006.84.115 1.517.364 2.032.248.515.61.775 1.086.778zm-68.48 8.594c.003-.476-.06-.827-.189-1.052-.129-.234-.39-.352-.781-.355l-.14-.001.002-.42 1.68.012c.337.002.593.06.77.173.176.113.3.3.373.563.073.252.108.616.105 1.092l-.04 5.6 4.112-7.391 1.68.012-.064 9.24-1.82-.013.052-7.42-4.112 7.391-1.68-.011.052-7.42zm9.33 7.695a2.838 2.838 0 01-.462-.045 2.677 2.677 0 01-.378-.087l.003-.406c.365-.053.674-.21.927-.47.254-.268.458-.729.612-1.381.163-.662.25-1.567.257-2.715.003-.41-.07-.723-.217-.939-.139-.216-.413-.325-.824-.328l.003-.42 6.3.044-.046 6.58-1.82-.013.041-5.95-1.974-.013-.007 1.05c-.024 3.406-.829 5.104-2.415 5.093zm10.883.006c-.681-.005-1.278-.158-1.789-.46a3.136 3.136 0 01-1.153-1.24 3.75 3.75 0 01-.394-1.754 3.666 3.666 0 01.418-1.733 3.03 3.03 0 011.17-1.224c.516-.304 1.115-.454 1.796-.449.681.005 1.273.163 1.775.474.51.303.9.716 1.167 1.24.267.516.398 1.095.394 1.74a3.749 3.749 0 01-.418 1.746 3.11 3.11 0 01-1.185 1.224c-.506.295-1.1.44-1.78.436zm.004-.63c.476.003.842-.25 1.098-.762.255-.512.386-1.188.392-2.028.006-.84-.115-1.517-.364-2.032-.248-.515-.61-.775-1.087-.778-.475-.003-.841.25-1.097.762-.255.512-.386 1.188-.392 2.028-.006.84.115 1.517.364 2.032.248.515.61.775 1.086.778zm4.997-4.235c.003-.476-.06-.827-.189-1.052-.129-.234-.39-.353-.781-.355l-.14-.001.002-.42 1.68.011c.336.003.593.06.77.174.176.113.3.3.373.563.073.252.108.616.105 1.092l-.008 1.12 2.24.016.02-2.94 1.82.013-.033 4.76c-.003.476.06.83.189 1.065.129.225.39.339.781.341l.14.001-.003.42-1.68-.011c-.336-.003-.592-.056-.768-.16-.177-.113-.302-.296-.375-.548-.072-.262-.107-.636-.104-1.121l.008-1.19-2.24-.016-.02 3.01-1.82-.013.033-4.76zm9.74 4.968c-.757-.006-1.344-.178-1.761-.517-.409-.348-.61-.811-.607-1.39.003-.467.114-.853.33-1.16.227-.306.615-.537 1.167-.692.552-.154 1.318-.228 2.298-.221h.21c.005-.811-.103-1.386-.324-1.723-.222-.347-.552-.522-.99-.525-.364-.003-.664.084-.898.26-.235.175-.405.505-.511.99l-.77-.005a5.12 5.12 0 01.061-.812c.049-.224.148-.419.299-.586.291-.325.992-.483 2.103-.475.933.006 1.64.258 2.123.757.49.488.733 1.223.726 2.203l-.026 3.78-1.19-.009-.486-.633h-.07c-.085.13-.216.26-.394.389-.32.25-.75.372-1.29.369zm.424-.697c.196 0 .364-.035.505-.109.14-.083.276-.194.408-.333.122-.13.217-.283.283-.46l.012-1.75-.21-.002c-.662-.004-1.144.114-1.444.354-.3.232-.452.6-.456 1.103-.002.383.075.677.232.884.157.206.38.31.67.313zm12.371.926c-.961-.007-1.79-.218-2.488-.634a4.17 4.17 0 01-1.57-1.718c-.359-.722-.535-1.535-.529-2.44.007-.934.213-1.781.62-2.544a4.591 4.591 0 011.665-1.809 4.338 4.338 0 012.37-.655c.822.006 1.507.118 2.056.336.549.21.967.483 1.254.821.167.216.268.483.303.8.035.318.051.761.047 1.33l-.42-.002c-.172-.86-.494-1.516-.967-1.967-.473-.451-1.092-.68-1.857-.685-.952-.007-1.706.324-2.261.992-.555.668-.839 1.8-.85 3.396-.008 1.186.237 2.172.736 2.96.498.787 1.27 1.184 2.315 1.192a3.265 3.265 0 001.796-.506c.553-.341 1-.833 1.34-1.474l.488.381c-.454.78-.999 1.351-1.636 1.71-.637.35-1.441.523-2.412.516zm8.103-.084c-.644-.004-1.208-.157-1.691-.46a3.11 3.11 0 01-1.126-1.225 3.896 3.896 0 01-.379-1.767c.005-.728.14-1.348.405-1.86a2.77 2.77 0 011.114-1.154 3.094 3.094 0 011.585-.395c.578.005 1.1.125 1.565.361.465.237.832.57 1.099 1.002.268.422.4.908.396 1.459a7.315 7.315 0 01-.032.602l-.03.28-4.214-.03c-.006.887.125 1.536.392 1.949.268.403.645.606 1.13.61.448.003.822-.092 1.122-.286.31-.204.606-.49.888-.862l.432.325a3.664 3.664 0 01-1.029 1.043c-.404.277-.946.413-1.627.408zm1.076-3.8c.006-.878-.092-1.499-.295-1.864-.202-.375-.495-.564-.878-.566-.354-.003-.645.186-.872.567-.217.372-.329.987-.335 1.846l2.38.017zm3.463-1.068c.003-.476-.06-.827-.189-1.052-.119-.234-.375-.352-.767-.355h-.14l.003-.42 1.386.009c.326.002.578.05.755.145a.9.9 0 01.416.451 2.797 2.797 0 011.909-.715c.943.007 1.664.334 2.164.981.509.639.76 1.462.753 2.47-.008 1.008-.275 1.832-.802 2.472-.517.631-1.262.943-2.232.937a2.773 2.773 0 01-1.077-.218 1.55 1.55 0 01-.39-.213l-.021 2.94-1.82-.012.052-7.42zm2.98 4.29c.933.007 1.407-.923 1.42-2.79.006-.858-.097-1.54-.308-2.046-.211-.505-.546-.76-1.003-.763a1.856 1.856 0 00-1.362.565l.041.196c.036.112.054.271.052.477l-.027 3.933c.102.085.214.156.335.213.26.142.544.214.852.216zm4.879-4.235c.003-.476-.059-.827-.189-1.052-.129-.234-.389-.352-.781-.355h-.07l.003-.42 4.83.033c.7.005 1.047.38 1.042 1.127l-.007.98-.42-.003c.004-.513-.106-.887-.328-1.122-.223-.235-.553-.354-.992-.357l-1.26-.009-.041 5.95-1.82-.013.033-4.76zm8.26 4.957c-.644-.004-1.208-.157-1.691-.46a3.095 3.095 0 01-1.126-1.225 3.896 3.896 0 01-.379-1.767c.005-.728.14-1.348.404-1.86a2.779 2.779 0 011.115-1.154 3.09 3.09 0 011.584-.395 3.457 3.457 0 011.566.361c.465.237.831.57 1.099 1.002.268.422.4.908.396 1.459a7.315 7.315 0 01-.032.602l-.03.28-4.214-.03c-.006.887.124 1.536.392 1.949.268.403.645.606 1.13.61.448.003.822-.093 1.122-.286.309-.204.605-.49.888-.862l.432.325a3.654 3.654 0 01-1.03 1.043c-.403.277-.945.413-1.626.408zm1.076-3.8c.006-.878-.092-1.499-.295-1.864-.203-.375-.495-.564-.878-.567-.355-.002-.645.187-.872.568-.217.372-.329.988-.335 1.846l2.38.017zm6.046 3.85c-.644-.005-1.207-.158-1.69-.46a3.095 3.095 0 01-1.126-1.226c-.258-.524-.384-1.113-.38-1.766.005-.728.14-1.348.405-1.86a2.782 2.782 0 011.114-1.154 3.102 3.102 0 011.585-.395 3.459 3.459 0 011.566.361c.465.237.831.57 1.099 1.002.268.422.399.908.396 1.459a7.347 7.347 0 01-.033.601l-.03.28-4.213-.03c-.007.887.124 1.537.392 1.95.268.403.644.606 1.13.61.448.003.822-.093 1.122-.287.309-.203.605-.49.888-.862l.432.325a3.655 3.655 0 01-1.03 1.043c-.403.277-.945.414-1.627.409zm1.077-3.8c.006-.878-.092-1.5-.295-1.865-.203-.375-.496-.563-.878-.566-.355-.002-.645.187-.872.568-.217.372-.329.987-.335 1.846l2.38.016zm3.378-1.07c.004-.475-.059-.826-.188-1.05-.129-.235-.39-.353-.782-.356h-.07l.003-.42 3.752.026c.868.006 1.553.155 2.055.448.511.293.765.71.761 1.251a1.222 1.222 0 01-.469.991c-.309.24-.749.396-1.319.467.625.088 1.123.274 1.494.556.372.274.556.63.553 1.068-.009 1.214-1.049 1.813-3.121 1.799l-2.702-.02.033-4.76zm2.304.997c.373.003.686-.093.94-.288a.997.997 0 00.397-.823c.003-.364-.116-.64-.358-.828a1.242 1.242 0 00-.824-.3 1.972 1.972 0 00-.63.094l-.015 2.142.49.003zm.117 3.22c.439.004.794-.1 1.066-.314.273-.222.41-.534.413-.935.003-.438-.139-.77-.427-.997-.279-.226-.67-.34-1.174-.344l-.49-.003-.017 2.492c.195.066.405.1.629.102zm4.991-4.164c.003-.476-.059-.827-.189-1.052-.129-.234-.389-.352-.781-.355l-.14-.001.003-.42 1.68.012c.336.002.592.06.769.173.176.113.301.3.374.563.073.252.107.616.104 1.092l-.008 1.12 2.24.016.021-2.94 1.82.013-.034 4.76c-.003.475.06.83.189 1.065.129.225.39.339.782.341l.14.001-.003.42-1.68-.011c-.336-.003-.593-.056-.769-.16-.177-.113-.301-.296-.374-.548-.073-.262-.108-.636-.104-1.121l.008-1.19-2.24-.016-.021 3.01-1.82-.013.033-4.76zm9.739 4.968c-.756-.006-1.342-.178-1.76-.517-.408-.348-.61-.811-.606-1.39.003-.467.113-.853.33-1.16.226-.306.615-.537 1.167-.692.551-.154 1.317-.228 2.297-.222l.21.002c.006-.812-.102-1.387-.324-1.724-.221-.347-.551-.522-.99-.525-.364-.003-.663.084-.898.26-.235.175-.405.505-.511.99l-.77-.005c.002-.318.023-.588.062-.812.048-.224.147-.42.298-.586.292-.325.993-.483 2.103-.475.934.006 1.641.258 2.123.756.491.49.734 1.224.727 2.204l-.027 3.78-1.19-.009-.485-.633h-.07a1.56 1.56 0 01-.395.389c-.319.25-.749.372-1.291.369zm.425-.698c.196.002.365-.034.505-.108.141-.083.277-.194.408-.333a1.36 1.36 0 00.284-.46l.012-1.75-.21-.002c-.663-.004-1.144.114-1.445.354-.3.232-.452.6-.455 1.103-.003.383.074.677.231.884.158.206.381.31.67.313z" fill="#F3EFE4"/><path fill-rule="evenodd" clip-rule="evenodd" d="M17.077 11.128h.445l.124.149.322.742.42 1.014.52 1.36.519 1.558.247.84.099.915.074 1.138-.074.47-.173.346-.297.495-.297.494-.123.247v.174h.79l.223.099.273.222.445.52.272.494.148.42v.816l-.569-.197-.52-.223-.518-.198-.42-.198v-.42h.766l-.173-.247-.297-.173-.247-.075-.272.075-.272.173-.347.247-.272.321-.173.297h-.569l-.197-.198V11.203l.123-.075zm.668 2.275l.322.619.37 1.063.42 1.434.174 1.039.124.915v.569l-.42.667-.47.767-.1.297v.569l-.42.42h-.099v-8.359h.099zm10.239-2.275h-.445l-.124.149-.322.742-.42 1.014-.52 1.36-.519 1.558-.247.84-.1.915-.073 1.138.074.47.173.346.297.495.297.494.123.247v.174h-.791l-.223.099-.272.222-.445.52-.272.494-.149.42v.816l.57-.197.519-.223.52-.198.42-.198v-.42h-.767l.173-.247.297-.173.247-.075.272.075.272.173.347.247.272.321.173.297h.569l.198-.198V11.203l-.124-.075zm-.668 2.275l-.321.619-.371 1.063-.42 1.434-.174 1.039-.124.915v.569l.42.667.47.767.1.297v.569l.42.42h.1v-8.359h-.1z" fill="#F3EFE4"/><path fill-rule="evenodd" clip-rule="evenodd" d="M21.875 3.66v-.198l.247.025.148.099.124.099.223.198.148.222.124.198.123.223.124.272.124.272.099.272.098.321.1.346.024.297.025.445v.198l-.42.618.024.025.495-.371h.099l.074.05.099.197.024.198.05.322.074.296.074.42.1.594.098.57.1.741v.89l.024 5.639-.05.173-.766.816.05.05.617-.15.025.273v1.484l-.074.84-.124.767-.222.643-.297.544-.37.47-.372.198h-.099v1.088h1.262v.445l-.42.445-.1.099v.148c.503.42 1.514 1.271 1.533 1.311.02.04.289.33.42.47l.026.05v.816l-.297.37-.347.223-.494.099-.544.099h-3.042l-.766-.396-.322-.222-.173-.149-.05-.099v-.742l2.028-1.83v-.247l-.47-.52-.074-.049v-.322h1.138v-1.087l-.445-.371-.371-.544-.198-.47-.198-.47-.124-.569-.074-.717-.099-1.038V18.3l-.05-4.105h.545v-.1l-.495-.667v-1.682l.074-1.211.124-.792.173-1.088.322-1.187.247-.915.247-.742.05-.741V3.66zm.692 6.43l-.074.47-.074.717v1.162l-.074 2.498v4.476l.099 2.72.099.569.148-.57.074-1.26v-7.32l-.074-1.93-.05-.988-.074-.544zm-.297 14.49h-.816v.149l.1.148.123.074h.297l.296-.198v-.173zm.718 3.66l.42-.123.42-.124.297-.173.149-.223V27.4l-.05-.099h.247l.174.1.123.148.074.173-.074.148-.123.173-.273.124-.321.074-.42.074-.272.05h-.322l-.099-.05.05-.074z" fill="#F3EFE4"/><path fill-rule="evenodd" clip-rule="evenodd" d="M12.33.37l-.273.372-.47.766-.47.965-.445 1.113-.321.915-.272 1.014-.149.964-.123 1.064-.05 1.162v.593l.05.693.099.791.148 1.039.198 1.187.173 1.038.247 1.138.223.99.346 1.483.346 1.657.198.742.1.643.073.816.1 1.088.098 1.607.05 1.46.049 1.409-.05 1.038-.049.075H9.757l-.272.123-.296.223-.198.198-.149.173-.074.099-.025 1.632.1.395.148.372.272.37.148.149L32.607 32l.297-.198.396-.47.321-.47.223-.445.544-1.088.297-.89.247-.742.247-1.014.149-.989.024-.791V21.91l-.098-.766-.1-1.039-.098-.692-.075-.495-.123-.84-.247-1.138-.297-1.46-.445-2.126-.396-1.978-.124-.792-.123-1.434-.124-.94-.074-.668-.05-3.66.1-.049h2.744l.371-.346.149-.297V1.508l-.149-.544-.123-.296-.173-.223-.124-.124-.322-.247L35.204 0H12.7l-.173.124-.198.247zm-.273 31.037l.668-.965.272-1.088.198-2.102v-2.448l-.198-2.943-.272-2.572-.594-2.547-.667-3.19-.495-3.413V7.765l.495-2.597.94-2.547.79-1.385.322-.544h19.561l-.296.371-.619 1.237-.47 1.36-.148 1.508.148 2.597.248 2.795.692 2.992.693 3.61.642 3.24.198 3.635-.197 1.78-.643 2.474-1.262 2.473-.37.643H12.056zm.025-2.325H9.584v1.632l.149.297.148.321.37.248h.372l.222-.124.322-.297.272-.297.223-.395.123-.371.173-.495.124-.52zM33.028 3.066h2.596v-1.78L35.427.94l-.223-.297-.173-.148h-.717l-.322.148-.222.297-.297.643-.223.643-.222.84z" fill="#F3EFE4"/><path d="M7.536 45.048c-.504 0-.96-.104-1.368-.312-.408-.216-.74-.632-.996-1.248l-.276-.672H1.704L.72 45H.096l3.54-7.92h.54l2.688 6.408c.304.744.72 1.144 1.248 1.2v.3c-.144.04-.336.06-.576.06zm-5.58-2.772h2.712l-1.32-3.132-1.392 3.132zm5.922 2.604a.407.407 0 01.42-.42h.432c.256-.56.44-1.156.552-1.788.112-.64.168-1.264.168-1.872 0-.352-.06-.62-.18-.804-.12-.184-.36-.276-.72-.276v-.36h5.34v5.1h.36a.407.407 0 01.42.42v2.04h-.6c-.04-.512-.117-.908-.229-1.188-.111-.272-.26-.464-.443-.576-.176-.104-.4-.156-.672-.156H9.822c-.272 0-.5.052-.684.156-.176.112-.32.304-.432.576-.112.28-.188.676-.228 1.188h-.6v-2.04zm4.451-.42V39.9h-1.692c0 1.032-.052 1.904-.155 2.616a8.053 8.053 0 01-.504 1.944h2.351zm3.325-3.54c0-.408-.056-.708-.168-.9-.112-.2-.336-.3-.672-.3h-.06v-.36h3.216c.744 0 1.332.124 1.764.372.44.248.66.604.66 1.068 0 .352-.132.636-.396.852-.264.208-.64.344-1.128.408.536.072.964.228 1.284.468.32.232.48.536.48.912 0 1.04-.888 1.56-2.664 1.56h-2.316v-4.08zm1.98.84c.32 0 .588-.084.804-.252a.854.854 0 00.336-.708c0-.312-.104-.548-.312-.708a1.066 1.066 0 00-.708-.252c-.192 0-.372.028-.54.084v1.836h.42zm.12 2.76c.376 0 .68-.092.912-.276.232-.192.348-.46.348-.804 0-.376-.124-.66-.372-.852-.24-.192-.576-.288-1.008-.288h-.42v2.136c.168.056.348.084.54.084zm6.617.6c-.584 0-1.096-.128-1.536-.384a2.688 2.688 0 01-.996-1.056 3.213 3.213 0 01-.348-1.5c0-.552.116-1.048.348-1.488.232-.448.564-.8.996-1.056.44-.264.952-.396 1.536-.396.584 0 1.092.132 1.524.396.44.256.776.608 1.008 1.056.232.44.348.936.348 1.488 0 .552-.116 1.052-.348 1.5-.232.44-.568.792-1.008 1.056-.432.256-.94.384-1.524.384zm0-.54c.408 0 .72-.22.936-.66.216-.44.324-1.02.324-1.74s-.108-1.3-.324-1.74c-.216-.44-.528-.66-.936-.66-.408 0-.72.22-.936.66-.216.44-.324 1.02-.324 1.74s.108 1.3.324 1.74c.216.44.528.66.936.66zm8.757.54c-.352 0-.676-.072-.972-.216-.288-.152-.56-.4-.816-.744l-1.152-1.512V45h-1.56v-4.08c0-.408-.056-.708-.168-.9-.112-.2-.336-.3-.672-.3h-.12v-.36h1.44c.288 0 .508.048.66.144.152.096.26.256.324.48.064.216.096.528.096.936v1.14l1.452-1.776c.272-.328.528-.564.768-.708.24-.144.56-.216.96-.216h.24v.312c-.24 0-.456.048-.648.144a1.782 1.782 0 00-.552.456l-1.164 1.416L32.84 43.8c.384.52.756.824 1.116.912V45c-.064.032-.18.06-.348.084a3.399 3.399 0 01-.48.036zm3.233 0c-.648 0-1.152-.144-1.512-.432-.352-.296-.528-.692-.528-1.188 0-.4.092-.732.276-.996.192-.264.524-.464.996-.6.472-.136 1.128-.204 1.968-.204h.18c0-.696-.096-1.188-.288-1.476-.192-.296-.476-.444-.852-.444-.312 0-.568.076-.768.228-.2.152-.344.436-.432.852h-.66c0-.272.016-.504.048-.696.04-.192.124-.36.252-.504.248-.28.848-.42 1.8-.42.8 0 1.408.212 1.824.636.424.416.636 1.044.636 1.884V45h-1.02l-.42-.54h-.06a1.33 1.33 0 01-.336.336c-.272.216-.64.324-1.104.324zm.36-.6a.907.907 0 00.432-.096c.12-.072.236-.168.348-.288.104-.112.184-.244.24-.396v-1.5h-.18c-.568 0-.98.104-1.236.312-.256.2-.384.516-.384.948 0 .328.068.58.204.756.136.176.328.264.576.264zm5.329-4.62h-.36c-.376 0-.66.1-.852.3-.192.2-.288.52-.288.96h-.36v-.84c0-.64.3-.96.9-.96h4.332v.54H43.61V45h-1.56v-5.1z" fill="#F3EFE4"/><rect x="51" width="1" height="48" rx=".5" fill="#F3EFE4"/></svg>