<svg width="29" height="32" fill="none" xmlns="http://www.w3.org/2000/svg"><path fill-rule="evenodd" clip-rule="evenodd" d="M9.077 11.128h.445l.124.149.322.742.42 1.014.52 1.36.519 1.558.247.84.099.915.074 1.138-.074.47-.173.346-.297.495-.297.494-.123.247v.174h.79l.223.099.272.222.446.52.272.494.148.42v.816l-.569-.197-.52-.223-.518-.198-.42-.198v-.42h.766l-.173-.247-.297-.173-.247-.075-.272.075-.272.173-.347.247-.272.321-.173.297h-.569l-.197-.198V11.203l.123-.075zm.668 2.275l.322.619.37 1.063.42 1.434.174 1.039.124.915v.569l-.42.667-.47.767-.1.297v.569l-.42.42h-.099v-8.359h.099zm10.239-2.275h-.445l-.124.149-.322.742-.42 1.014-.52 1.36-.519 1.558-.247.84-.1.915-.073 1.138.074.47.173.346.297.495.297.494.123.247v.174h-.791l-.223.099-.272.222-.445.52-.272.494-.149.42v.816l.57-.197.519-.223.52-.198.42-.198v-.42h-.767l.173-.247.297-.173.247-.075.272.075.272.173.347.247.272.321.173.297h.569l.198-.198V11.203l-.124-.075zm-.668 2.275l-.321.619-.371 1.063-.42 1.434-.174 1.039-.124.915v.569l.42.667.47.767.1.297v.569l.42.42h.1v-8.359h-.1z" fill="#F3EFE4"/><path fill-rule="evenodd" clip-rule="evenodd" d="M13.875 3.66v-.198l.247.025.149.099.123.099.223.198.148.222.124.198.123.223.124.272.124.272.099.272.098.321.1.346.024.297.025.445v.198l-.42.618.024.025.495-.371h.099l.074.05.099.197.024.198.05.322.074.296.074.42.1.594.098.57.1.741v.89l.024 5.639-.05.173-.766.816.05.05.617-.15.025.273v1.484l-.074.84-.124.767-.222.643-.297.544-.37.47-.372.198h-.099v1.088H16.1v.445l-.42.445-.099.099v.148c.503.42 1.514 1.271 1.533 1.311.02.04.289.33.42.47l.026.05v.816l-.297.37-.347.223-.494.099-.544.099h-3.042l-.767-.396-.32-.222-.174-.149-.05-.099v-.742l2.028-1.83v-.247l-.47-.52-.074-.049v-.322h1.138v-1.087l-.445-.371-.371-.544-.198-.47-.198-.47-.124-.569-.074-.717-.099-1.038V18.3l-.05-4.105h.545v-.1l-.495-.667v-1.682l.075-1.211.123-.792.173-1.088.322-1.187.247-.915.247-.742.05-.741V3.66zm.692 6.43l-.074.47-.074.717v1.162l-.074 2.498v4.476l.099 2.72.098.569.149-.57.074-1.26v-7.32l-.074-1.93-.05-.988-.074-.544zm-.296 14.491h-.817v.149l.1.148.123.074h.297l.296-.198v-.173zm.717 3.66l.42-.123.42-.124.297-.173.149-.223V27.4l-.05-.099h.247l.174.1.123.148.074.173-.074.148-.123.173-.273.124-.321.074-.42.074-.272.05h-.322l-.099-.05.05-.074z" fill="#F3EFE4"/><path fill-rule="evenodd" clip-rule="evenodd" d="M4.33.37l-.273.372-.47.766-.47.965-.445 1.113-.321.915-.272 1.014-.149.964-.123 1.064-.05 1.162v.593l.05.693.099.791.148 1.039.198 1.187.173 1.038.247 1.138.223.99.346 1.483.346 1.657.198.742.1.643.073.816.1 1.088.098 1.607.05 1.46.049 1.409-.05 1.038-.049.075H1.757l-.272.123-.296.223-.198.198-.149.173-.074.099-.025 1.632.1.395.148.372.272.37.148.149L24.607 32l.297-.198.396-.47.321-.47.223-.445.544-1.088.297-.89.247-.742.247-1.014.149-.989.024-.791V21.91l-.099-.766-.098-1.039-.1-.692-.073-.495-.124-.84-.248-1.138-.296-1.46-.445-2.126-.396-1.978-.124-.792-.123-1.434-.124-.94-.074-.668-.05-3.66.1-.049h2.744l.371-.346.149-.297V1.508l-.149-.544-.123-.296-.174-.223-.123-.124-.322-.247L27.204 0H4.7l-.173.124L4.33.37zm-.273 31.037l.668-.965.272-1.088.198-2.102v-2.448l-.198-2.943-.272-2.572-.594-2.547-.667-3.19-.495-3.413V7.765l.495-2.597.94-2.547.79-1.385.322-.544h19.561l-.297.371-.618 1.237-.47 1.36-.148 1.508.148 2.597.248 2.795.692 2.992.693 3.61.643 3.24.197 3.635-.197 1.78-.643 2.474-1.262 2.473-.37.643H4.056zm.025-2.325H1.584v1.632l.149.297.148.321.37.248h.372l.222-.124.322-.297.272-.297.223-.395.123-.371.173-.495.124-.52zM25.028 3.066h2.596v-1.78L27.427.94l-.223-.297-.173-.148h-.717l-.322.148-.222.297-.297.643-.223.643-.222.84z" fill="#F3EFE4"/></svg>